<svg id="Calque_1" data-name="Calque 1" xmlns="http://www.w3.org/2000/svg" xmlns:xlink="http://www.w3.org/1999/xlink" viewBox="0 0 600 662.7"><defs><style>.cls-1{fill:none;}.cls-2{clip-path:url(#clip-path);}.cls-3{fill:#dbc445;}.cls-4{fill:#7d0000;}.cls-5{fill:#760000;}.cls-6{fill:#f3d4cf;}.cls-7,.cls-8{fill:#d4958a;}.cls-7{opacity:0.65;isolation:isolate;}.cls-9{fill:#c5796d;}.cls-10{fill:#e4b3ab;}.cls-11{fill:#da7c87;}.cls-12{fill:#cb5f6c;}.cls-13{fill:#fff;}.cls-14{fill:#7b87b5;}.cls-15{fill:#485896;}.cls-16{fill:#99a2c4;}.cls-17{fill:#6b4e40;}.cls-18{fill:#7a6155;}.cls-19{fill:#5c3d2e;}.cls-20{fill:#fbe5e2;}.cls-21{fill:#850000;}</style><clipPath id="clip-path" transform="translate(0 0)"><ellipse class="cls-1" cx="301" cy="305.67" rx="286" ry="292.67"/></clipPath></defs><title>avataraudreychenu</title><g class="cls-2"><g id="svga-group-wrapper"><g id="svga-group-backs-single"><path id="SvgjsPath9049" class="cls-3" d="M600,600H0V0H600Z" transform="translate(0 0)"/></g><g id="svga-group-humanwrap-move"><g id="svga-group-humanwrap"><g id="svga-group-hair-back-move"><g id="svga-group-hair-back"><path id="SvgjsPath7581" class="cls-4" d="M197.4,152.1S407.7,349.2,416.1,367.8c8.4,18.3,22.2,68.7-11.1,99-33.3,30-111.9,33.3-142.8,22.2-30.9-11.4-43.5-13.8-70.2-55.2s-30.9-123.3-32.7-149.4-7.8-63.6,6.6-96.3,31.5-36,31.5-36" transform="translate(0 0)"/><path id="SvgjsPath7582" class="cls-5" d="M386.4,365.1l-40.2,20.7-8.4,12.9c-51.6-18.6-103.5-37.5-155.1-56.1a152.89,152.89,0,0,0,10.5,67.2A151.18,151.18,0,0,0,240,472.5S364.5,507,364.8,489c.3-28.8,12-43.2,18.3-51.6,5.7-7.8,15.3-21.6,13.5-36.3s-10.2-36-10.2-36Z" transform="translate(0 0)"/></g></g><g id="svga-group-humanbody-back"><path id="SvgjsPath7415" class="cls-6" d="M505.2,658.5,500.4,594s2.1-27-26.4-45.9-70.2-30.3-88.5-42.6-27.6-13.5-27-50.7,2.7-120.9,2.7-120.9H238.8s2.1,83.7,2.7,120.9-8.7,38.4-27,50.7-60,23.7-88.5,42.6S99.6,594,99.6,594l-5.1,64.5Z" transform="translate(0 0)"/></g><g id="svga-group-chinshadow-single"><path id="SvgjsPath7411" class="cls-7" d="M358.5,454.8c.6-37.2,2.7-120.9,2.7-120.9H238.8s2.1,83.7,2.7,120.9c0,4.2,0,8.1-.3,11.4,17.7,17.4,37.8,27.9,58.8,27.9s41.1-10.5,58.8-27.9C358.5,462.9,358.5,459,358.5,454.8Z" transform="translate(0 0)"/></g><g id="svga-group-humanbody-front"><path id="SvgjsPath7416" class="cls-8" d="M378.6,527.7c.6-.3,0-1.2-.3-.9-9,2.1-17.7,5.4-26.4,8.1s-18,4.5-26.4,7.8c-.9.3-.9,2.1.3,2.1,17.4-1.5,37.5-8.4,52.8-17.1ZM273,546.3a1.36,1.36,0,0,0,.3-2.7c-7.8-3-16.2-4.8-24-7.5s-15.6-6-23.4-8.7a.81.81,0,0,0-.6,1.5c13.8,8.4,31.8,15.6,47.7,17.4Z" transform="translate(0 0)"/><path id="SvgjsPath7417" class="cls-9" d="M94.8,658.2,198,656.7l102.6-.9c34.2-.3,68.4-.6,102.3-.6l102-.3-3,3.3-4.5-64.5v-.6c.3-3-.3-6.3-.9-9.6a55.84,55.84,0,0,0-3-9.3A54.77,54.77,0,0,0,482.1,558c-4.8-4.8-10.2-8.4-16.2-12-5.7-3.3-12-6.6-18.3-9.6-12.6-6-25.5-11.1-38.4-16.8-6.6-3-12.9-5.7-19.2-9.3-3.3-1.8-6.3-3.9-9-5.7-2.7-2.1-5.7-3.9-8.7-6a38.23,38.23,0,0,1-8.1-7.5,30.33,30.33,0,0,1-4.8-9.9c-2.1-7.2-2.4-14.1-2.4-21.3.3-14.1.9-27.9,1.2-42l2.1-84,.9.9-61.2.3-61.2.6,1.8-1.8c.9,27.9,2.1,55.8,2.7,84,.3,14.1.9,28.2.9,42.3,0,7.2-.3,14.4-2.4,21.6a32.56,32.56,0,0,1-5.1,10.2,34.24,34.24,0,0,1-8.4,7.8c-3,2.1-6,3.9-9,5.7a65.92,65.92,0,0,1-9,5.7c-6.3,3.3-12.6,6.3-19.2,9-12.9,5.4-26.1,10.5-38.7,16.2a153.66,153.66,0,0,0-18.6,9.3c-6,3.6-11.7,7.2-16.5,12a53.33,53.33,0,0,0-11.7,16.5,46.49,46.49,0,0,0-4.5,19.8l-6.3,64.2Zm-.6.6L98.4,594v.3c-.6-14.7,6-28.8,16.2-39a88.24,88.24,0,0,1,17.1-12.9c6-3.6,12.3-6.9,18.6-9.9,12.9-6,25.8-11.4,38.7-16.8a182.79,182.79,0,0,0,18.9-9,68.62,68.62,0,0,0,8.7-5.4c3-1.8,6-3.9,8.7-5.7a25.58,25.58,0,0,0,7.2-6.6,29.24,29.24,0,0,0,4.2-8.7c1.8-6.3,2.1-13.2,2.4-20.1,0-13.8-.3-27.9-.6-42-.6-27.9-.9-56.1-1.2-84v-1.8h1.8l61.2.6,61.2.3h.9v.9l-1.8,84c-.3,14.1-.6,28.2-.6,42a76,76,0,0,0,2.4,20.4,26.78,26.78,0,0,0,4.5,8.7,30.46,30.46,0,0,0,7.2,6.6,86.89,86.89,0,0,0,8.7,5.7,101.86,101.86,0,0,0,9,5.4c6,3.3,12.6,6,18.9,8.7,12.9,5.1,26.1,10.2,39,16.2,6.3,3,12.9,6,18.9,9.6s12.3,7.8,17.4,12.9c10.5,10.5,17.4,24.6,17.1,39.9V594l5.1,64.5.3,3.3h-3.3L402,661.5c-34.5,0-69-.3-103.2-.6L196.2,660l-102-1.2Zm332.4-1.2.3-41.4,5.7,41.4Zm-253.8,0-.3-41.4-5.7,41.4Z" transform="translate(0 0)"/></g><g id="svga-group-clothes-single"><path id="SvgjsPath8207" d="M170.4,660H429.6V649.2l80.4-7.8s-3.6-49.5-5.7-60-6.9-25.8-36.3-42-83.1-37.2-83.1-37.2c-2.1-.3-75.3,91.5-170.1,0,0,0-53.7,21-83.1,37.2s-34.2,31.5-36.3,42-5.7,60-5.7,60l80.4,7.8.3,10.8Z" transform="translate(0 0)"/><path id="SvgjsPath8208" d="M87.9,641.4a1.73,1.73,0,0,0,1.8,1.8l40.2,3.3,39.6,3,.6,10.5,129,1.8,65.1.6c21.9.3,43.5.3,65.4.3a3,3,0,0,0,3-3v-8.1l37.5-3.6,40.2-3.9a3.52,3.52,0,0,0,2.7-3.3c-1.5-17.4-2.7-34.8-4.8-52.2-.9-8.7-3-18-8.1-25.8-4.8-7.8-12-13.8-19.2-18.9-7.5-5.1-15.3-9-23.1-12.9-8.1-3.9-15.9-7.5-24-10.8-16.2-6.9-32.4-13.2-48.6-19.5h-.3a3,3,0,0,0-.9.3l-.3.3-.3.3-.6.6-1.2,1.2-2.1,2.1a27.8,27.8,0,0,1-4.2,4.2,116.28,116.28,0,0,1-9.3,7.8,142.78,142.78,0,0,1-20.1,12.9,110.18,110.18,0,0,1-22.2,8.7,104.41,104.41,0,0,1-23.7,2.7,101.6,101.6,0,0,1-45.6-12.3,161.32,161.32,0,0,1-38.1-28.8,2.63,2.63,0,0,0-2.1-.3c-16.5,6.3-32.7,12.6-48.6,19.8-7.8,3.6-15.9,7.2-23.7,11.1s-15.9,8.1-23.1,13.2c-7.5,5.1-14.4,11.1-19.2,18.9-5.1,7.8-6.9,17.1-7.8,25.8-1.8,17.4-2.7,34.8-3.9,52.2Zm42.3,2.4-37.5-4.2,2.1-24.3c.9-8.4,1.8-17.1,2.7-25.8.6-8.7,2.7-16.8,7.2-23.7s11.1-12.6,18-17.4a177.24,177.24,0,0,1,22.2-12.6c7.5-3.9,15.6-7.5,23.4-11.1,15.6-6.9,31.2-13.8,46.8-20.1a166.53,166.53,0,0,0,38.4,27.6c14.7,7.2,30.9,11.7,47.1,11.7a102,102,0,0,0,46.8-11.7A182.16,182.16,0,0,0,367.8,519c3-2.4,6.3-5.1,9.3-7.8,1.5-1.5,3-2.7,4.5-4.2l2.1-2.1,1.2-.9.6-.3c15.9,6.6,31.8,13.2,47.4,20.4,7.8,3.6,15.6,7.5,23.4,11.4a178.82,178.82,0,0,1,22.2,12.9c6.9,5.1,13.2,10.8,17.7,17.7,4.2,6.9,6,15,6.9,23.7,1.5,16.2,2.7,32.7,3.9,48.9L469.5,642l-40.2,4.5a3,3,0,0,0-2.7,3v7.8c-20.4,0-40.8,0-61.2.3l-64.5.6L170.7,660l.3-10.8a.65.65,0,0,0-.6-.6l-40.2-4.8Zm301.5-21.9-1.8,5.7c-1.2,4.2-1.8,8.7-2.7,12.9,1.5-3.9,2.4-8.1,3.9-12.3l2.1-6,1.2-3,1.2-3c.9-2.1,1.8-3.9,2.7-6,.9-1.8,2.1-3.9,3-5.7a34.2,34.2,0,0,1,3-5.7c1.2-1.8,2.1-3.6,3.3-5.4A146.85,146.85,0,0,1,463.2,573a87.37,87.37,0,0,1,9.3-9c3.3-2.7,6.6-5.4,10.2-7.8-7.8,3.6-14.7,9.3-21,15.3a109.17,109.17,0,0,0-16.5,20.4c-4.5,7.5-8.7,15.3-11.4,23.7l-1.2,3-.9,3.3ZM153,592.2c-4.8-7.2-10.2-14.4-16.5-19.8a87.69,87.69,0,0,0-21-15.3,61.41,61.41,0,0,1,10.2,7.8,66,66,0,0,1,9.3,9,146.85,146.85,0,0,1,15.6,20.4c1.2,1.8,2.1,3.6,3.3,5.4a52.13,52.13,0,0,1,3,5.7,52.13,52.13,0,0,1,3,5.7c.9,2.1,1.8,4.2,2.7,6l1.2,3,1.2,3,2.1,6c1.5,3.9,2.4,8.1,3.9,12.3-.9-4.5-1.8-8.7-2.7-12.9l-1.8-6.3-.9-3.3-1.2-3c-2.7-8.4-6.9-16.2-11.4-23.7Z" transform="translate(0 0)"/></g><g id="svga-group-head"><g id="svga-group-ears-left-move"><g id="svga-group-ears-left"><path id="SvgjsPath7365" class="cls-6" d="M407.4,288.9c-10.2,12-12,33.9-8.4,42.9,3.3,9,10.5,21,15.9,21.9,5.1.9,9.6-9.6,14.4-18s13.5-23.4,14.7-33-3.3-30.9-6.9-35.1-5.7-4.5-13.2,2.4a190.39,190.39,0,0,0-16.5,18.9Z" transform="translate(0 0)"/><path id="SvgjsPath7366" class="cls-10" d="M396.3,314.4c1.8-9.3,5.1-18.6,10.5-26.1,5.7-6.9,10.8-14.1,16.8-20.4a62.84,62.84,0,0,1,5.1-4.2,14.62,14.62,0,0,1,3.3-1.2,6,6,0,0,1,3.3.9,8.09,8.09,0,0,1,2.4,2.1,6.56,6.56,0,0,1,.9,1.5c.3.6.6.9.9,1.5a56,56,0,0,1,2.1,6.6,106.19,106.19,0,0,1,2.4,13.5c.3,4.5.9,9.3.3,14.1a25.94,25.94,0,0,1-1.8,6.9c-.9,2.4-1.8,4.5-2.7,6.6-1.8,4.2-3.9,8.4-6,12.6s-4.2,8.1-6.3,12.3-3.9,8.4-7.5,12a10.77,10.77,0,0,1-3,2.1,7.29,7.29,0,0,1-3.6,0c-2.1-.6-3.6-2.1-5.1-3.6-3-3-5.1-6.6-7.2-10.2-.9-2.1-1.8-3.9-2.7-6a31.12,31.12,0,0,1-1.2-3l-.9-3.6a29.21,29.21,0,0,1-.6-7.2,58.26,58.26,0,0,1,.6-7.2Zm28.8-43.8a112,112,0,0,0-17.4,18.3,38.06,38.06,0,0,0-6.3,12,53.26,53.26,0,0,0-2.4,13.5c0,4.5,0,9,.9,12.9,0,.6.3.9.3,1.5l.6,1.2c.3.9.9,1.8,1.2,2.7l2.7,5.4a59.82,59.82,0,0,0,6.6,9.6,11.37,11.37,0,0,0,3.9,3c1.2.6,2.4,0,3.6-1.2a33.28,33.28,0,0,0,3.6-4.8c1.2-1.8,2.1-3.6,3.3-5.7,2.1-3.9,4.5-7.8,6.9-11.7a93.4,93.4,0,0,0,6.6-12l2.7-6.3a52.25,52.25,0,0,0,1.5-6.6,49.22,49.22,0,0,0-1.2-13.2c-.9-4.2-2.1-8.7-3.3-12.6a32,32,0,0,0-2.1-5.7c-.3-.3-.3-.9-.6-1.2,0-.3-.3-.6-.6-.9a5.09,5.09,0,0,0-1.8-1.8c-2.1-1.5-5.7,1.2-8.7,3.6Z" transform="translate(0 0)"/><path id="SvgjsPath7367" class="cls-8" d="M437.7,307.2a38.82,38.82,0,0,1-10.2,23.4c-.3.3-.6,0-.3-.3,8.1-12,9.6-27.3,7.2-41.1-.6-4.2,0-5.7-3.3-5.1-2.7.3-4.2,3.3-6,6a95,95,0,0,0-6.9,13.5c3.3-2.7,7.8-3,8.7,2.4,1.2,6-4.2,15.9-8.7,18.6-.6.3-.9-.3-.6-.9,2.4-3.9,5.1-6.9,6.3-12,.9-3.9-.3-6.6-3.6-5.1-1.2.6-2.4,1.8-3.6,2.4-.9.3-1.5-.9-1.2-1.8a1,1,0,0,0,.3-.6c2.7-8.1,13.5-34.5,19.5-26.4,3.6,4.8,3,20.7,2.4,27Z" transform="translate(0 0)"/></g></g><g id="svga-group-ears-right-move"><g id="svga-group-ears-right"><path id="SvgjsPath7368" class="cls-6" d="M192.6,288.9c10.2,12,12,33.9,8.4,42.9-3.3,9-10.5,21-15.9,21.9-5.1.9-9.6-9.6-14.4-18s-13.5-23.4-14.7-33,3.3-30.9,6.9-35.1,5.7-4.5,13.2,2.4a190.39,190.39,0,0,1,16.5,18.9Z" transform="translate(0 0)"/><path id="SvgjsPath7369" class="cls-10" d="M192.9,288.9c5.7,6.9,9,16.2,10.5,26.1a43.5,43.5,0,0,1,0,14.4l-.9,3.6c-.3.9-.9,2.1-1.2,3-.9,2.1-1.8,4.2-2.7,6-2.1,3.6-4.2,7.2-7.2,10.2-1.5,1.5-3,3-5.1,3.6-.9.6-2.4.3-3.6,0a6.86,6.86,0,0,1-3-2.1c-3.3-3.6-5.4-7.8-7.5-12s-4.2-8.1-6.3-12.3-4.2-8.4-6-12.6c-.9-2.1-1.8-4.2-2.7-6.6a25.94,25.94,0,0,1-1.8-6.9c-.6-4.8,0-9.6.3-14.1a106.19,106.19,0,0,1,2.4-13.5,42.48,42.48,0,0,1,2.1-6.6c.3-.6.6-.9.9-1.5a6.56,6.56,0,0,1,.9-1.5,17.15,17.15,0,0,1,2.4-2.1,4.29,4.29,0,0,1,3.3-.9,6.29,6.29,0,0,1,3.3,1.2,23.83,23.83,0,0,1,5.1,4.2c6.3,6.3,11.4,13.5,16.8,20.4Zm-.3.3c-5.4-6.9-11.4-13.5-17.4-18.3-3.3-2.4-6.6-5.4-8.7-3.6l-1.8,1.8c-.3.3-.3.6-.6.9s-.3.9-.6,1.2c-.6,1.8-1.5,3.6-2.1,5.7a86.27,86.27,0,0,0-3.3,12.6,48.14,48.14,0,0,0-1.2,13.2,17.56,17.56,0,0,0,1.5,6.6l2.7,6.3c2.1,4.2,4.2,8.1,6.6,12,2.1,3.9,4.8,7.8,6.9,11.7a55.73,55.73,0,0,0,3.3,5.7,33.28,33.28,0,0,0,3.6,4.8c1.2,1.2,2.4,1.8,3.6,1.2a17,17,0,0,0,3.9-3,45.2,45.2,0,0,0,6.6-9.6l2.7-5.4c.3-.9.9-1.8,1.2-2.7l.6-1.2c0-.6.3-.9.3-1.5a45.19,45.19,0,0,0,.9-12.9,53.26,53.26,0,0,0-2.4-13.5,38.06,38.06,0,0,0-6.3-12Z" transform="translate(0 0)"/><path id="SvgjsPath7370" class="cls-8" d="M162.3,307.2a38.82,38.82,0,0,0,10.2,23.4c.3.3.6,0,.3-.3-8.1-12-9.6-27.3-7.2-41.1.6-4.2,0-5.7,3.3-5.1,2.7.3,4.2,3.3,6,6a95,95,0,0,1,6.9,13.5c-3.3-2.7-7.8-3-8.7,2.4-1.2,6,4.2,15.9,8.7,18.6.6.3.9-.3.6-.9-2.4-3.9-5.1-6.9-6.3-12-.9-3.9.3-6.6,3.6-5.1,1.2.6,2.4,1.8,3.6,2.4.9.3,1.5-.9,1.2-1.8a1,1,0,0,1-.3-.6c-2.7-8.1-13.5-34.5-19.5-26.4-3.6,4.8-3,20.7-2.4,27Z" transform="translate(0 0)"/></g></g><g id="svga-group-faceshape-wrap"><g id="svga-group-faceshape-single"><path id="SvgjsPath7397" class="cls-6" d="M177,265.2c0-91.2,56.7-141,123-141s123,50.1,123,141S366.3,460.8,300,460.8,177,356.1,177,265.2Z" transform="translate(0 0)"/><path id="SvgjsPath7398" class="cls-9" d="M300,123.9c-66.3,0-123.3,50.1-123.3,141s57,196.5,123.3,196.5S423.3,355.8,423.3,264.9s-57-141-123.3-141Zm-84.6,40.8,1.5-.9,1.2-1.2a108.11,108.11,0,0,1,22.2-16.2,93.2,93.2,0,0,1,12.3-6,109.92,109.92,0,0,1,12.9-4.5c1.2-.3,2.1-.6,3.3-.9s2.1-.6,3.3-.9l3.3-.6,1.8-.3,1.8-.3,3.3-.6c.9,0,2.1-.3,3.3-.3.9,0,2.1-.3,3.3-.3l3.3-.3h6.9c2.4,0,4.5.3,6.9.3l3.3.3a13.45,13.45,0,0,1,3.3.3,49.81,49.81,0,0,1,6.6.9,115,115,0,0,1,25.8,7.5,113.09,113.09,0,0,1,23.4,13.5,105.65,105.65,0,0,1,19.5,18.9l1.2,1.2.9,1.5,2.1,2.7a64.24,64.24,0,0,1,3.9,5.7c1.2,2.1,2.4,3.9,3.6,6l1.5,3a27.88,27.88,0,0,1,1.5,3,126.62,126.62,0,0,1,9.6,25.8,162.53,162.53,0,0,1,5.1,27.3l.6,6.9c0,2.1.3,4.5.3,6.9.3,4.8.3,9.3.3,14.1-.3,9.3-1.2,18.9-2.4,28.2a228.7,228.7,0,0,1-5.4,27.9c-1.2,4.8-2.4,9.3-3.9,13.8s-3,9-4.8,13.5a203.69,203.69,0,0,1-11.7,26.1,171.08,171.08,0,0,1-15,24.3,143.12,143.12,0,0,1-18.9,21.3,108.78,108.78,0,0,1-22.8,16.2c-8.1,4.2-16.8,7.2-25.8,7.8a64.75,64.75,0,0,1-13.2-.3,47.51,47.51,0,0,1-12.9-3,89.27,89.27,0,0,1-23.4-12.9,149.91,149.91,0,0,1-20.1-18.9q-4.95-5.4-9-10.8c-2.7-3.6-5.4-7.5-8.1-11.4q-7.65-11.7-14.4-24.3c-4.5-8.4-8.4-17.1-12-25.8a204.63,204.63,0,0,1-9.3-27,212,212,0,0,1-7.8-56.7c.3-18.9,3-38.4,9.9-56.1l1.2-3.3c.6-1.2.9-2.1,1.5-3.3l1.5-3.3,1.5-3.3a14,14,0,0,1,1.5-3l1.8-3c.9-2.1,2.4-3.9,3.6-6l.9-1.5.9-1.5,2.1-3c.6-.9,1.5-1.8,2.1-2.7l2.1-2.7c.9-.9,1.5-1.8,2.4-2.7s1.5-1.8,2.4-2.7l2.4-2.4Z" transform="translate(0 0)"/></g></g><g id="svga-group-mouth-single-move"><g id="svga-group-mouth-single"><path id="SvgjsPath7355" class="cls-11" d="M313.61,409.12c10.54-5.41,26.22-22.8,26.22-22.8s-11.12-1.14-17.1-3.13-10-3.42-12.54-3.14c-2.28.29-9.12,4.56-11.12,4.56s-8-5.13-10.26-5.41c-3.13-.57-23.37,5.41-30.49,6.84,0,0,1.42,4.27,9.12,12,8,7.69,20.52,14.25,25.65,14.82s10,1.71,20.52-3.71Z" transform="translate(0 0)"/><path id="SvgjsPath7356" class="cls-12" d="M341.25,385.47c-14.53,1.42-28.78,4.84-43.32,5.41-14,.57-27.93-4.56-41.61-6.27-1.14-.28-1.14,1.43-.28,1.71,8.26,2.85,17.67,3.71,26.22,5.13,5.13.86,10.54,2,15.67,1.71a224.15,224.15,0,0,0,43.32-6.55C341.82,386.61,341.82,385.75,341.25,385.47Z" transform="translate(0 0)"/></g></g><g id="svga-group-eyes-left-move"><g id="svga-group-eyes-left"><g id="svga-group-eyesback-left"><path id="SvgjsPath7486" class="cls-13" d="M323.4,305.4c3-2.1,9-2.1,12.6-2.1,3,0,9.9,1.2,15.6,1.5s19.5-4.8,24.6-8.4a47.93,47.93,0,0,0,9.3-9.3s-26.4-8.4-36.3-6.6-15.6,7.8-19.8,13.5a43.72,43.72,0,0,0-6,11.4Z" transform="translate(0 0)"/></g><g id="svga-group-eyesiriswrapper-left"><g id="svga-group-eyesiriscontrol-left"><g id="svga-group-eyesiris-left"><path id="SvgjsPath7432" class="cls-14" d="M370.2,289.2A16.2,16.2,0,1,1,354,273,16.13,16.13,0,0,1,370.2,289.2Z" transform="translate(0 0)"/><path id="SvgjsPath7433" class="cls-15" d="M354,273.9a15.49,15.49,0,0,1,15.6,15.6A15.68,15.68,0,0,1,354,305.1a15.49,15.49,0,0,1-15.6-15.6A15.68,15.68,0,0,1,354,273.9m-17.1,15.6A17.1,17.1,0,1,0,354,272.4,17.09,17.09,0,0,0,336.9,289.5Z" transform="translate(0 0)"/><path id="SvgjsPath7434" class="cls-16" d="M362.7,294A14.79,14.79,0,0,0,348,279a13.94,13.94,0,0,0-6.9,1.8,13.41,13.41,0,0,0-2.7,8.4A15.68,15.68,0,0,0,354,304.8a11.66,11.66,0,0,0,4.5-.6,14.29,14.29,0,0,0,4.2-10.2Z" transform="translate(0 0)"/><path id="SvgjsPath7435" d="M362.4,289.2a8.4,8.4,0,1,1-8.4-8.4A8.58,8.58,0,0,1,362.4,289.2Z" transform="translate(0 0)"/><path id="SvgjsPath7436" class="cls-13" d="M361.8,284.7a4.2,4.2,0,1,1-4.2-4.2A4.1,4.1,0,0,1,361.8,284.7Zm-9.6,10.5a2.7,2.7,0,1,1-2.7-2.7A2.69,2.69,0,0,1,352.2,295.2Z" transform="translate(0 0)"/></g></g></g><g id="svga-group-eyesfront-left"><path id="SvgjsPath7494" class="cls-6" d="M354.9,256.5c-18.3,0-33,16.8-33,37.5s14.7,37.5,33,37.5,33-16.8,33-37.5S373.2,256.5,354.9,256.5Zm30.3,30.6a37.57,37.57,0,0,1-9.6,9.3c-5.4,3.3-18.9,8.7-24.6,8.4-5.7,0-12.3-1.5-15.6-1.5-3,0-9.3,0-12.3,2.1a43.72,43.72,0,0,1,6-11.4c3.9-5.7,9.9-11.7,19.8-13.5,9.9-2.1,36.3,6.6,36.3,6.6Z" transform="translate(0 0)"/><path id="SvgjsPath7495" d="M385.8,288c6.3.3,12.6-1.2,19.2-6.9.3-.3-.3-.9-.6-.6-7.2,4.5-13.5,5.1-20.4,3.6a18.17,18.17,0,0,0,12-5.7c.3-.3,0-.9-.3-.6-5.1,3.3-9.9,5.1-15.6,5.1a22.1,22.1,0,0,1-4.2-1.2c4.2-.6,8.4-2.4,11.1-5.7.3-.3-.3-.9-.6-.6-4.2,3.3-8.4,5.4-13.8,5.1a20.67,20.67,0,0,0-2.4-.9,13.08,13.08,0,0,0,7.5-5.7c.3-.6-.3-.9-.6-.6-3,2.7-5.7,4.5-9.3,5.4-5.4-1.5-10.8-2.4-16.5-1.5-14.1,2.7-24.6,14.1-28.2,27.3,0,.3,0,.6.3.6-.3.3,0,.9.3.6,8.1-4.2,15.3-.9,23.4,0a39.16,39.16,0,0,0,15.6-1.8,50.9,50.9,0,0,0,16.8-9,33.33,33.33,0,0,1,4.8,2.1c.3.3.6-.3.3-.6a6.57,6.57,0,0,0-4.2-2.4,4.14,4.14,0,0,0,1.2-.9,8.51,8.51,0,0,1,3.9-1.2,14,14,0,0,1,5.1.9c.3,0,.6-.3.3-.6a8.68,8.68,0,0,0-7.2-1.5,16.49,16.49,0,0,0,2.1-2.7Zm-1.5,0c-9.9,8.1-20.4,14.7-33.9,15.3-9.3.6-17.7-3-26.4,1.5,4.2-8.1,9-15.9,17.4-20.4,9.3-5.1,20.7-2.4,30.3.6a54.43,54.43,0,0,0,12.6,3Z" transform="translate(0 0)"/></g></g></g><g id="svga-group-eyes-right-move"><g id="svga-group-eyes-right"><g id="svga-group-eyesback-right"><path id="SvgjsPath7487" class="cls-13" d="M276.6,305.4c-3-2.1-9-2.1-12.6-2.1-3,0-9.9,1.2-15.6,1.5s-19.5-4.8-24.6-8.4a47.93,47.93,0,0,1-9.3-9.3s26.4-8.4,36.3-6.6,15.6,7.8,19.8,13.5a43.72,43.72,0,0,1,6,11.4Z" transform="translate(0 0)"/></g><g id="svga-group-eyesiriswrapper-right"><g id="svga-group-eyesiriscontrol-right"><g id="svga-group-eyesiris-right"><path id="SvgjsPath7437" class="cls-14" d="M262.2,289.2A16.2,16.2,0,1,1,246,273,16.13,16.13,0,0,1,262.2,289.2Z" transform="translate(0 0)"/><path id="SvgjsPath7438" class="cls-15" d="M246,273.9a15.6,15.6,0,0,1,0,31.2,15.49,15.49,0,0,1-15.6-15.6A15.68,15.68,0,0,1,246,273.9m-17.1,15.6A17.1,17.1,0,1,0,246,272.4,16.9,16.9,0,0,0,228.9,289.5Z" transform="translate(0 0)"/><path id="SvgjsPath7439" class="cls-16" d="M254.7,294A14.79,14.79,0,0,0,240,279a16.75,16.75,0,0,0-6.9,1.8,13.41,13.41,0,0,0-2.7,8.4A15.68,15.68,0,0,0,246,304.8a11.66,11.66,0,0,0,4.5-.6,14.29,14.29,0,0,0,4.2-10.2Z" transform="translate(0 0)"/><path id="SvgjsPath7440" d="M254.4,289.2a8.4,8.4,0,1,1-8.4-8.4A8.58,8.58,0,0,1,254.4,289.2Z" transform="translate(0 0)"/><path id="SvgjsPath7441" class="cls-13" d="M253.8,284.7a4.2,4.2,0,1,1-4.2-4.2A4.29,4.29,0,0,1,253.8,284.7Zm-9.6,10.5a2.7,2.7,0,1,1-2.7-2.7A2.69,2.69,0,0,1,244.2,295.2Z" transform="translate(0 0)"/></g></g></g><g id="svga-group-eyesfront-right"><path id="SvgjsPath7496" class="cls-6" d="M212.1,294c0,20.7,14.7,37.5,33,37.5s33-16.8,33-37.5-14.7-37.5-33-37.5C227.1,256.5,212.1,273.3,212.1,294Zm12,2.4a44.59,44.59,0,0,1-9.6-9.3s26.4-8.4,36.3-6.6,15.6,7.8,19.8,13.5a43.72,43.72,0,0,1,6,11.4c-3-2.1-9-2.1-12.3-2.1-3,0-9.9,1.2-15.6,1.5s-19.5-4.8-24.6-8.4Z" transform="translate(0 0)"/><path id="SvgjsPath7499" d="M195.6,281.1c6,5.7,12.3,7.2,19.2,6.9.6.9,1.5,1.8,2.1,2.7a8.46,8.46,0,0,0-7.2,1.5c-.3.3,0,.6.3.6a15.24,15.24,0,0,1,5.1-.9,8.51,8.51,0,0,1,3.9,1.2,4.14,4.14,0,0,1,1.2.9,8.55,8.55,0,0,0-4.2,2.4c-.3.3,0,.9.3.6a23.22,23.22,0,0,1,4.8-2.1,57.11,57.11,0,0,0,16.8,9,39.16,39.16,0,0,0,15.6,1.8c8.1-.9,15.3-4.2,23.4,0,.3,0,.6-.3.3-.6.3,0,.3-.3.3-.6-3.9-13.5-14.4-24.6-28.2-27.3-5.7-.9-11.1,0-16.5,1.5-3.6-.9-6.3-2.7-9.3-5.4-.3-.3-.9.3-.6.6a13.08,13.08,0,0,0,7.5,5.7,20.67,20.67,0,0,1-2.4.9c-5.4.3-9.3-1.8-13.8-5.1-.3-.3-.9.3-.6.6,2.4,3.6,6.9,5.4,11.1,5.7-1.5.3-3,.9-4.2,1.2a23.26,23.26,0,0,1-15.6-5.1c-.3-.3-.6.3-.3.6a18.85,18.85,0,0,0,12,5.7c-6.9,1.5-13.2.9-20.4-3.6-.6-.3-.9.3-.6.6Zm54,22.5c-13.5-.9-24-7.5-33.9-15.3a75.9,75.9,0,0,0,12.6-3c9.6-3,20.7-5.7,30.3-.6,8.4,4.5,13.5,12.3,17.4,20.4-8.7-4.5-17.1-.9-26.4-1.5Z" transform="translate(0 0)"/></g></g></g><g id="svga-group-eyebrows-left-move"><g id="svga-group-eyebrows-left-rotate"><g id="svga-group-eyebrows-left"><path id="SvgjsPath7855" class="cls-17" d="M393.6,258a3,3,0,0,1,1.8,2.7c0,.3-.6.6-.9.6a5.38,5.38,0,0,1-2.1-1.5c-.3,0-.3-.3-.6-.3h-.3c-3-.3-6.6-1.8-9.6-2.7a8.88,8.88,0,0,1-3-.6c-1.2-.3-2.7-.3-3.9-.6-3.6,1.5-8.1,1.5-12,2.4-4.2.9-8.4,2.1-12.6,2.7-2.7,1.5-5.7,2.7-8.4,3.9-4.2,1.8-9,3.9-13.8,4.2a1.1,1.1,0,0,1-.9-.3,2.27,2.27,0,0,1-1.2.3c-2.7.3-4.5-.6-5.4-3v-.3a9.3,9.3,0,0,1-1.8-3.9.8.8,0,0,1,.9-.9,2.54,2.54,0,0,1,0-2.1.81.81,0,0,1,1.2-.6h.3c4.2-1.5,8.7-2.1,13.2-3,4.5-1.8,9.6-2.7,14.4-3.6.6,0,.9-.3,1.2-.3a57,57,0,0,1,15-3.9c6-1.5,13.5-.9,18,2.4h.3c1.8,1.2,3.9,2.7,5.7,3.9a10.45,10.45,0,0,1,4.2,3.9c0,.3,0,.3.3.6Z" transform="translate(0 0)"/><path id="SvgjsPath7856" class="cls-18" d="M330.3,256.2c.6-.6,1.2.3.9,1.2a36.6,36.6,0,0,0-2.1,5.1,45.51,45.51,0,0,1-.9,6.3c-.3.9-1.8.9-1.8,0-.6-4.2,0-10.2,3.9-12.6Zm9.6-2.7c.3-.3.6.3.3.6-2.4,2.1-4.8,3.6-6.6,6a19.79,19.79,0,0,0-3.6,8.1c0,.3-.9.3-.9-.3.6-5.7,4.5-13.2,10.8-14.4Zm17.1-4.2c.6,0,.6.3.3.9-1.8,2.4-4.5,3.6-6.6,5.4-2.4,1.8-3.6,4.2-5.1,6.6-.3.3-.9,0-.9-.6a15.4,15.4,0,0,1,4.5-7.2c2.1-2.1,5.1-4.5,7.8-5.1Zm14.1-3.3c.9,0,.9.9,0,1.2-3.3,1.2-6.3,2.1-9,4.2a30,30,0,0,0-6.3,7.5c-.3.6-1.2.3-.9-.3,2.1-6.3,9.3-12.6,16.2-12.6Zm16.2,8.1c-3.6-1.5-7.2-4.5-11.7-3.9-4.2.3-7.5,3.3-10.5,6-.3.6-1.2,0-.9-.6,5.1-7.8,17.4-10.5,23.7-2.4C388.2,253.5,388.2,254.4,387.3,254.1Z" transform="translate(0 0)"/><path id="SvgjsPath7857" class="cls-19" d="M323.7,270.9c3.3.9,6.6-.3,9.6-2.1,4.5-1.8,9-3.6,13.8-5.4,9-3,18.3-6,27.6-6.3,8.7,0,16.2,2.7,23.7,7.2,1.2.9,2.4-.9,1.2-1.8-.3,0-.6-.3-.9-.6-8.1-9.9-17.1-18.9-30.9-17.1-7.2.9-14.7,3-21.9,5.1-8.1,2.4-16.8,4.2-24.9,7.2-.6.3-.3.9.3.9,1.8-.3,3.3-.9,5.1-1.2a12.37,12.37,0,0,0-1.8,11.1,7.77,7.77,0,0,1-3.3-3,28.87,28.87,0,0,1-2.1-5.4c-.3-.6-1.5-.6-1.5.3,0,4.5,1.2,9.9,6,11.1Zm69.6-12c-8.7-4.2-18.3-5.1-28.5-3-.6,0-.9.3-1.2.3a54.77,54.77,0,0,1,3.9-4.8,32.66,32.66,0,0,1,6.9-4.2,19.41,19.41,0,0,1,9.3,3.3A64.22,64.22,0,0,1,393.3,258.9Zm-67.5,9.6a14.67,14.67,0,0,1,2.1-11.7c11.4-2.7,22.8-6,34.2-8.4a40,40,0,0,1,8.4-.9,24.83,24.83,0,0,0-4.5,3.3c-1.8,1.5-3.9,3.9-4.5,6.3-3,.6-5.7,1.5-8.7,2.4a32.75,32.75,0,0,1,3.9-5.1c1.8-2.1,3.9-3.3,5.7-5.1.3-.3,0-1.2-.6-.9-4.5,2.1-8.7,6.9-10.8,11.4a62.83,62.83,0,0,0-6.9,2.4,56.83,56.83,0,0,1,2.7-6.3c.3-.6-.3-.9-.6-.6a10.22,10.22,0,0,0-2.7,7.2c-.6.3-1.2.3-1.8.6-3.6,1.5-7.2,3.3-10.8,4.5a16.64,16.64,0,0,1-5.1.9Z" transform="translate(0 0)"/></g></g></g><g id="svga-group-eyebrows-right-move"><g id="svga-group-eyebrows-right-rotate"><g id="svga-group-eyebrows-right"><path id="SvgjsPath7858" class="cls-17" d="M206.4,258a3,3,0,0,0-1.8,2.7c0,.3.6.6.9.6a5.38,5.38,0,0,0,2.1-1.5c.3,0,.3-.3.6-.3h.3c3-.3,6.6-1.8,9.6-2.7a8.88,8.88,0,0,0,3-.6c1.2-.3,2.7-.3,3.9-.6,3.6,1.5,8.1,1.5,12,2.4,4.2.9,8.4,2.1,12.6,2.7,2.7,1.5,5.7,2.7,8.4,3.9,4.2,1.8,9,3.9,13.8,4.2a1.1,1.1,0,0,0,.9-.3,2.27,2.27,0,0,0,1.2.3c2.7.3,4.5-.6,5.4-3v-.3a9.3,9.3,0,0,0,1.8-3.9.8.8,0,0,0-.9-.9,2.54,2.54,0,0,0,0-2.1.81.81,0,0,0-1.2-.6h-.3c-4.2-1.5-8.7-2.1-13.2-3-4.5-1.8-9.6-2.7-14.4-3.6-.6,0-.9-.3-1.2-.3a57,57,0,0,0-15-3.9c-6-1.5-13.5-.9-18,2.4h-.3c-1.8,1.2-3.9,2.7-5.7,3.9a10.45,10.45,0,0,0-4.2,3.9c0,.3,0,.3-.3.6Z" transform="translate(0 0)"/><path id="SvgjsPath7859" class="cls-18" d="M269.7,256.2c-.6-.6-1.2.3-.9,1.2a36.6,36.6,0,0,1,2.1,5.1,45.51,45.51,0,0,0,.9,6.3c.3.9,1.8.9,1.8,0,.6-4.2,0-10.2-3.9-12.6Zm-9.6-2.7c-.3-.3-.6.3-.3.6,2.4,2.1,4.8,3.6,6.6,6a19.79,19.79,0,0,1,3.6,8.1c0,.3.9.3.9-.3-.6-5.7-4.5-13.2-10.8-14.4ZM243,249.3c-.6,0-.6.3-.3.9,1.8,2.4,4.5,3.6,6.6,5.4,2.4,1.8,3.6,4.2,5.1,6.6.3.3.9,0,.9-.6a15.4,15.4,0,0,0-4.5-7.2c-2.1-2.1-5.1-4.5-7.8-5.1ZM228.9,246c-.9,0-.9.9,0,1.2,3.3,1.2,6.3,2.1,9,4.2a30,30,0,0,1,6.3,7.5c.3.6,1.2.3.9-.3-2.1-6.3-9.3-12.6-16.2-12.6Zm-16.5,8.1c3.9-1.5,7.5-4.5,12-3.9,4.2.3,7.5,3.3,10.5,6,.3.6,1.2,0,.9-.6-5.1-7.8-17.4-10.5-23.7-2.4C211.8,253.5,211.8,254.4,212.4,254.1Z" transform="translate(0 0)"/><path id="SvgjsPath7860" class="cls-19" d="M266.7,269.4c3,1.2,6.3,2.4,9.9,2.1,4.5-1.5,5.7-6.9,6-11.1,0-.9-1.2-.9-1.5-.3-.9,1.8-1.2,3.6-2.1,5.4a5.22,5.22,0,0,1-3.3,3,12.23,12.23,0,0,0-1.8-11.1,31.38,31.38,0,0,0,5.1,1.2c.6,0,.9-.6.3-.9-8.1-3-16.5-4.8-24.9-7.2-7.2-1.8-14.4-4.2-21.9-5.1-13.8-1.5-22.8,7.2-30.9,17.1a1.56,1.56,0,0,0-1.2.6c-1.2.6,0,2.4,1.2,1.8,7.2-4.5,15-7.5,23.7-7.2,9.3,0,18.9,3.3,27.6,6.3,4.5,1.8,9.3,3.6,13.8,5.4Zm-50.1-18.9a21.72,21.72,0,0,1,9.3-3.3c2.4,1.5,4.8,2.4,6.9,4.2a54.77,54.77,0,0,1,3.9,4.8c-.6,0-.9-.3-1.2-.3a44.24,44.24,0,0,0-28.5,3A43.87,43.87,0,0,1,216.6,250.5Zm55.2,6.3a12.68,12.68,0,0,1,2.1,11.7c-1.5.3-3.3-.3-5.1-.9-3.6-1.2-7.2-3-10.8-4.5-.6-.3-1.2-.3-1.8-.6a10.75,10.75,0,0,0-2.7-7.2c-.3-.3-.9,0-.6.6a28.48,28.48,0,0,1,2.7,6.3,46.64,46.64,0,0,0-6.9-2.4c-2.1-4.8-6.3-9.6-10.8-11.4-.6,0-.9.6-.6.9,1.8,1.8,3.9,3.3,5.7,5.1a32.75,32.75,0,0,1,3.9,5.1,73.63,73.63,0,0,0-8.7-2.4c-.6-2.4-2.7-4.8-4.5-6.3a17.48,17.48,0,0,0-4.5-3.3,42.2,42.2,0,0,1,8.4.9c11.4,2.4,22.8,5.7,34.2,8.4Z" transform="translate(0 0)"/></g></g></g><g id="svga-group-nose-single-move"><g id="svga-group-nose-single"><path id="SvgjsPath7526" class="cls-9" d="M285.21,328.71c-4.59,5.79-13.8,14.25-10.77,22.71,1.95,5.58,9.48,7.59,13.41,3.24a17.79,17.79,0,0,0,13.08,5.1,15.43,15.43,0,0,0,9.78-5c4.26,1.62,9.9,2.73,13.56-.72s2.79-8.79.63-12.84c-4.14-7.8-9.12-14.28-11.76-22.92-2.55-8.34-3.09-16.89-3.12-25.56,0-.45-.72-.57-.81-.12-1.89,10.71-.21,21.87,3.66,32a77.56,77.56,0,0,0,7.44,14.25,25.78,25.78,0,0,1,2.46,4.35c1.35,3.36,1.32,4.14-1.08,7.17s-2.88,3.15-6.33,2.94a24.56,24.56,0,0,1-3.27-.48,13.32,13.32,0,0,0,2.37-8.28.51.51,0,0,0-1-.12c-2,6.48-6.75,12.51-14.19,12.21-7-.27-9.45-5.25-13.23-10-.45-.57-1.26,0-1.32.54a9.05,9.05,0,0,0,2.07,6.36c-3.81,2-8.52,2.37-10.35-3-1.11-3.27.51-6.66,2.1-9.36,2.34-4,5.1-7.8,7.62-11.67.39-.6-.54-1.29-1-.75Z" transform="translate(0 0)"/><path id="SvgjsPath7527" class="cls-20" d="M293,344.76a8.3,8.3,0,0,0,12.54,1.35c1.74-1.89,2.61-5,.57-7a3.43,3.43,0,0,0-1.32-.81,5,5,0,0,0-1.83-2.7c-2.7-2.1-6.51-1.44-8.91.81A6.69,6.69,0,0,0,293,344.76Z" transform="translate(0 0)"/></g></g><g id="svga-group-hair-front"><path id="SvgjsPath7576" class="cls-4" d="M173.1,236.7c3.9-2.1,13.2-17.7,18.9-24s29.7-24.9,36.6-29.1S240,169.5,240,169.5c-3.6,17.1-33.6,40.5-43.8,60.9s-11.1,63.3-11.1,63.3c-6-10.8-11.7-32.7-14.4-55.8C171.6,237.3,172.8,237,173.1,236.7ZM399.3,407.1s-3,12-11.1,30.3c-14.7,30.9-12.6,49.5-8.1,65.1,4.2,15,12,29.1,16.8,43.5s4.5,28.2-.6,36.3c0,0,11.1-.9,18.3-17.4s7.2-31.5,4.5-42c-.6-3-2.7-13.2-5.1-26.1a117,117,0,0,0,5.7,10.5c12,18.6,8.7,42.6-5.7,78-14.7,35.4,15.3,64.8,16.8,61.8,4.2-7.8,13.8-11.1,16.2-13.5s26.7-33,38.7-77.1-78.6-177.6-78.6-177.6-4.2,21.9-6.3,41.7c-.9-6.9-1.5-11.7-1.5-13.5Z" transform="translate(0 0)"/><path id="SvgjsPath7577" class="cls-21" d="M195.9,230.4c-10.2,20.4-11.1,63.3-11.1,63.3-12.9-23.1-24.9-96-6.9-123.3s30-21.3,30-21.3-6-22.2,34.2-47.1,103.5-29.7,147.3-3.9,78.9,59.7,83.1,123c4.2,63.6-7.5,99.3-17.7,125.1s-2.7,64.8,11.7,95.7c14.7,30.9,31.5,60.9,33.3,99.3s-9.6,63-37.5,83.7c-17.7,13.2-22.2,24-22.2,24,3.3-19.8,9.3-33.3,21.3-52.2s12-45.3,0-71.1-54-70.2-68.4-128.4,10.2-105.3,13.8-141.3-24.6-96.6-68.4-81.3-98.4-5.1-98.4-5.1C236.4,186.6,206.1,210,195.9,230.4Z" transform="translate(0 0)"/><path id="SvgjsPath7578" class="cls-4" d="M217.2,150.6a29,29,0,0,1-9-9.6,18,18,0,0,0,0,7.8l2.1,1.8s17.1,11.4,24,10.2,33.9-30.3,38.4-36.9,29.1-30,64.5-29.7c21.9.3,58.5,4.8,86.7,34.2,18.9,19.8,24.9,36.9,28.2,61.8,2.1,13.5-4.5,92.7-16.8,123s-15.9,45-11.7,62.7,14.1,50.7,26.4,69.9,38.4,66.6,41.4,94.2-10.8,63.9-25.2,76.8c-14.1,12.9-21.3,18.3-26.1,31.8,0,0,4.5-10.8,22.2-24,27.6-20.7,39.3-45.3,37.5-83.7s-18.9-68.4-33.3-99.3-22.2-69.9-11.7-95.7,21.9-61.8,17.7-125.1c-4.2-62.4-38.1-96.3-80.7-121.8a138.48,138.48,0,0,0-63-11.4c-39.3,2.1-43.8,11.7-60.9,30.3-10.2,11.1-20.1,29.7-32.4,35.1-4.2,2.1-11.4,2.1-18.3-2.4ZM293.4,180a2.86,2.86,0,0,0,3-.6h12.3c1.5,0,2.7-.3,3.9-.3a5.85,5.85,0,0,1,2.4-.3c1.2,0,2.4-.3,3.6-.3.9,0,1.5-.3,2.1-.3h.3a91.76,91.76,0,0,0,17.4-4.2c43.5-15.3,72,45.3,68.4,81.3S378.6,338.4,393,396.6,449.4,499.2,461.4,525s12,52.2,0,71.1c-10.2,15.6-15.9,27.6-19.5,42.6,2.4-5.4,8.4-9.6,17.4-24.3,23.7-38.1,20.4-57,10.5-84.9-9.6-26.7-55.5-83.7-62.4-99.9s-13.2-53.1-13.8-79.2c-.6-25.8,15-65.4,24.9-86.1s24.9-63,1.8-112.2-91.2-45.6-111.6-37.5c-17.7,6.9-29.1,27.3-36,38.4C255,171.3,240,169.5,240,169.5s3.9,1.5,10.5,3.3c1.2.3,2.1.6,3.3.9a1.1,1.1,0,0,0,.9.3c.9.3,2.1.6,3.3.9a1.1,1.1,0,0,0,.9.3,8.76,8.76,0,0,1,2.7.6c.3,0,.6.3,1.2.3a15.48,15.48,0,0,1,3.3.6c.6,0,1.2.3,1.8.3a15.06,15.06,0,0,1,3.6.6c.6,0,1.2.3,1.8.3.9,0,1.8.3,2.7.3s1.8.3,2.7.3,2.1.3,3,.3,1.8.3,2.4.3c1.2,0,2.7.3,3.9.3a7.46,7.46,0,0,0,2.4.3,10.21,10.21,0,0,0,3,.3Z" transform="translate(0 0)"/><path id="SvgjsPath7579" class="cls-21" d="M410.1,445.8c5.4,21.3,17.7,41.4,28.2,56.1A75.62,75.62,0,0,1,450.9,558c-3,18.3-23.1,50.7-25.2,60-2.4,9.3,3.3,21.6,3.3,21.6s-1.2-11.7,3.3-22.8,18-24.3,27.9-49.5,4.5-45.3-22.2-77.4c-20.1-24.3-27.9-44.1-27.9-44.1Zm-5.7,4.5c-1.8,13.8-.9,39.6,6.9,59.4,7.8,20.1,4.5,49.5-5.1,69.3s.6,39,.6,39c-1.2-15.9,13.8-39.9,21.6-58.2s4.5-39.9-6-57.3-18-52.2-18-52.2Z" transform="translate(0 0)"/><path id="SvgjsPath7580" class="cls-5" d="M320.7,179.1a127.62,127.62,0,0,0,17.7-4.5c43.5-15.3,71.7,45.3,68.4,81.3a161.11,161.11,0,0,1-3.9,21.9c6.6-17.7,17.1-38.4,18.6-70.8,1.5-32.7-22.8-63.9-45.9-66.3s-34.2,5.7-48.6,23.4a59.66,59.66,0,0,1-22.8,16.2h4.5c1.5,0,2.7-.3,3.9-.3a5.85,5.85,0,0,1,2.4-.3c1.2,0,2.4-.3,3.6-.3.6,0,1.2-.3,2.1-.3Z" transform="translate(0 0)"/></g></g></g></g></g></g></svg>